<?xml version="1.0" encoding="iso-8859-1"?>
<!-- Generator: Adobe Illustrator 19.0.0, SVG Export Plug-In . SVG Version: 6.00 Build 0)  -->
<svg version="1.1" id="Capa_1" xmlns="http://www.w3.org/2000/svg" xmlns:xlink="http://www.w3.org/1999/xlink" x="0px" y="0px"
	 viewBox="0 0 480 480" style="enable-background:new 0 0 480 480;" xml:space="preserve">
<g>
	<g>
		<path d="M368,208v48h64v-48H368z M416,240h-32v-16h32V240z"/>
	</g>
</g>
<g>
	<g>
		<path d="M368,272v48h64v-48H368z M416,304h-32v-16h32V304z"/>
	</g>
</g>
<g>
	<g>
		<path d="M368,336v48h64v-48H368z M416,368h-32v-16h32V368z"/>
	</g>
</g>
<g>
	<g>
		<path d="M368,400v48h64v-48H368z M416,432h-32v-16h32V432z"/>
	</g>
</g>
<g>
	<g>
		<path d="M272,80V32h-64v48h-48v64h48v48h64v-48h48V80H272z M304,128h-48v48h-32v-48h-48V96h48V48h32v48h48V128z"/>
	</g>
</g>
<g>
	<g>
		<path d="M352,176V0H128v176H16v304h448V176H352z M128,464H32V192h96V464z M232,464h-40V320h40V464z M288,464h-40V320h40V464z
			 M336,464h-32V304H176v160h-32V16h192V464z M448,464h-96V192h96V464z"/>
	</g>
</g>
<g>
	<g>
		<path d="M48,208v48h64v-48H48z M96,240H64v-16h32V240z"/>
	</g>
</g>
<g>
	<g>
		<path d="M48,272v48h64v-48H48z M96,304H64v-16h32V304z"/>
	</g>
</g>
<g>
	<g>
		<path d="M48,336v48h64v-48H48z M96,368H64v-16h32V368z"/>
	</g>
</g>
<g>
	<g>
		<path d="M48,400v48h64v-48H48z M96,432H64v-16h32V432z"/>
	</g>
</g>
<g>
</g>
<g>
</g>
<g>
</g>
<g>
</g>
<g>
</g>
<g>
</g>
<g>
</g>
<g>
</g>
<g>
</g>
<g>
</g>
<g>
</g>
<g>
</g>
<g>
</g>
<g>
</g>
<g>
</g>
</svg>
